<?xml version="1.0" standalone="no"?>
<!DOCTYPE svg PUBLIC "-//W3C//DTD SVG 20010904//EN"
 "http://www.w3.org/TR/2001/REC-SVG-20010904/DTD/svg10.dtd">
<svg version="1.0" xmlns="http://www.w3.org/2000/svg"
 width="260.000000pt" height="260.000000pt" viewBox="0 0 260.000000 260.000000"
 preserveAspectRatio="xMidYMid meet">
<metadata>
Created by potrace 1.11, written by Peter Selinger 2001-2013
</metadata>
<g transform="translate(0.000000,260.000000) scale(0.100000,-0.100000)"
fill="#000000" stroke="none">
<path d="M1190 2567 c-3 -3 -32 -8 -64 -11 -32 -4 -61 -8 -65 -10 -3 -2 -22
-7 -41 -10 -33 -5 -142 -38 -185 -55 -33 -13 -180 -85 -185 -91 -3 -3 -37 -26
-76 -52 -82 -55 -210 -177 -277 -263 -131 -170 -233 -420 -255 -625 -17 -163
2 -413 37 -479 6 -10 8 -21 4 -24 -3 -4 -1 -12 5 -19 6 -7 10 -17 10 -21 -2
-37 85 -213 160 -326 49 -75 180 -218 252 -276 154 -124 404 -234 597 -261 68
-10 288 -16 280 -8 -4 4 -18 9 -30 11 -55 8 -170 48 -252 89 -272 134 -459
368 -536 667 -11 43 -17 82 -14 87 4 6 3 10 -2 10 -20 0 -12 265 10 365 9 38
40 140 47 155 4 8 21 42 36 75 92 193 283 381 477 469 63 29 105 46 127 51 8
2 40 11 71 19 76 20 231 34 304 27 l60 -6 -65 -19 c-237 -67 -420 -226 -509
-440 -16 -39 -32 -83 -35 -96 -2 -14 -9 -44 -14 -68 -14 -61 -7 -256 12 -324
72 -260 266 -459 526 -540 64 -20 95 -23 215 -22 78 0 151 5 165 11 l25 11
-30 0 c-42 -1 -129 27 -184 58 -72 41 -174 150 -209 225 -51 108 -65 229 -37
329 9 30 17 60 18 65 18 76 139 223 215 261 20 10 44 24 52 31 8 6 17 11 20
11 3 0 25 6 50 12 59 17 193 22 250 9 128 -29 266 -130 331 -244 29 -51 64
-150 60 -172 -1 -6 4 -15 11 -19 7 -4 10 -4 7 0 -4 4 -1 26 5 49 23 78 8 278
-30 430 -59 231 -191 454 -361 610 -76 70 -108 97 -114 97 -3 0 -17 9 -30 21
-33 28 -170 102 -257 138 -66 27 -190 62 -272 76 -51 9 -304 18 -310 12z"/>
</g>
</svg>
